solid eMachineShop01
  facet normal 0.000000E+000 0.000000E+000 1.000000E+000
    outer loop
      vertex 0.000000E+000 3.400000E+002 6.000000E+000
      vertex 6.000000E+000 3.400000E+002 6.000000E+000
      vertex 6.000000E+000 3.500000E+002 6.000000E+000
    endloop
  endfacet
  facet normal 0.000000E+000 0.000000E+000 1.000000E+000
    outer loop
      vertex 0.000000E+000 3.560000E+002 6.000000E+000
      vertex 0.000000E+000 3.400000E+002 6.000000E+000
      vertex 6.000000E+000 3.500000E+002 6.000000E+000
    endloop
  endfacet
  facet normal 0.000000E+000 0.000000E+000 1.000000E+000
    outer loop
      vertex 0.000000E+000 3.560000E+002 6.000000E+000
      vertex 6.000000E+000 3.500000E+002 6.000000E+000
      vertex 1.220000E+001 3.500000E+002 6.000000E+000
    endloop
  endfacet
  facet normal 0.000000E+000 0.000000E+000 1.000000E+000
    outer loop
      vertex 4.584000E+002 3.560000E+002 6.000000E+000
      vertex 0.000000E+000 3.560000E+002 6.000000E+000
      vertex 1.220000E+001 3.500000E+002 6.000000E+000
    endloop
  endfacet
  facet normal 0.000000E+000 0.000000E+000 1.000000E+000
    outer loop
      vertex 4.524000E+002 3.400000E+002 6.000000E+000
      vertex 4.584000E+002 3.400000E+002 6.000000E+000
      vertex 4.584000E+002 3.560000E+002 6.000000E+000
    endloop
  endfacet
  facet normal 0.000000E+000 0.000000E+000 1.000000E+000
    outer loop
      vertex 4.524000E+002 3.500000E+002 6.000000E+000
      vertex 4.524000E+002 3.400000E+002 6.000000E+000
      vertex 4.584000E+002 3.560000E+002 6.000000E+000
    endloop
  endfacet
  facet normal 0.000000E+000 0.000000E+000 1.000000E+000
    outer loop
      vertex 4.462000E+002 3.500000E+002 6.000000E+000
      vertex 4.524000E+002 3.500000E+002 6.000000E+000
      vertex 4.584000E+002 3.560000E+002 6.000000E+000
    endloop
  endfacet
  facet normal 0.000000E+000 0.000000E+000 1.000000E+000
    outer loop
      vertex 4.402000E+002 3.400000E+002 6.000000E+000
      vertex 4.462000E+002 3.400000E+002 6.000000E+000
      vertex 4.462000E+002 3.500000E+002 6.000000E+000
    endloop
  endfacet
  facet normal 0.000000E+000 0.000000E+000 1.000000E+000
    outer loop
      vertex 4.402000E+002 3.500000E+002 6.000000E+000
      vertex 4.402000E+002 3.400000E+002 6.000000E+000
      vertex 4.462000E+002 3.500000E+002 6.000000E+000
    endloop
  endfacet
  facet normal 0.000000E+000 0.000000E+000 1.000000E+000
    outer loop
      vertex 4.402000E+002 3.500000E+002 6.000000E+000
      vertex 4.462000E+002 3.500000E+002 6.000000E+000
      vertex 4.584000E+002 3.560000E+002 6.000000E+000
    endloop
  endfacet
  facet normal 0.000000E+000 0.000000E+000 1.000000E+000
    outer loop
      vertex 3.122000E+002 3.500000E+002 6.000000E+000
      vertex 4.402000E+002 3.500000E+002 6.000000E+000
      vertex 4.584000E+002 3.560000E+002 6.000000E+000
    endloop
  endfacet
  facet normal 0.000000E+000 0.000000E+000 1.000000E+000
    outer loop
      vertex 3.122000E+002 3.500000E+002 6.000000E+000
      vertex 4.584000E+002 3.560000E+002 6.000000E+000
      vertex 1.220000E+001 3.500000E+002 6.000000E+000
    endloop
  endfacet
  facet normal 0.000000E+000 0.000000E+000 1.000000E+000
    outer loop
      vertex 3.122000E+002 3.500000E+002 6.000000E+000
      vertex 1.220000E+001 3.500000E+002 6.000000E+000
      vertex 1.220000E+001 0.000000E+000 6.000000E+000
    endloop
  endfacet
  facet normal 0.000000E+000 0.000000E+000 1.000000E+000
    outer loop
      vertex 3.122000E+002 3.500000E+002 6.000000E+000
      vertex 1.220000E+001 0.000000E+000 6.000000E+000
      vertex 3.122000E+002 0.000000E+000 6.000000E+000
    endloop
  endfacet
  facet normal 0.000000E+000 0.000000E+000 -1.000000E+000
    outer loop
      vertex 0.000000E+000 3.400000E+002 0.000000E+000
      vertex 6.000000E+000 3.500000E+002 0.000000E+000
      vertex 6.000000E+000 3.400000E+002 0.000000E+000
    endloop
  endfacet
  facet normal 0.000000E+000 0.000000E+000 -1.000000E+000
    outer loop
      vertex 0.000000E+000 3.560000E+002 0.000000E+000
      vertex 6.000000E+000 3.500000E+002 0.000000E+000
      vertex 0.000000E+000 3.400000E+002 0.000000E+000
    endloop
  endfacet
  facet normal 0.000000E+000 0.000000E+000 -1.000000E+000
    outer loop
      vertex 0.000000E+000 3.560000E+002 0.000000E+000
      vertex 1.220000E+001 3.500000E+002 0.000000E+000
      vertex 6.000000E+000 3.500000E+002 0.000000E+000
    endloop
  endfacet
  facet normal 0.000000E+000 0.000000E+000 -1.000000E+000
    outer loop
      vertex 4.584000E+002 3.560000E+002 0.000000E+000
      vertex 1.220000E+001 3.500000E+002 0.000000E+000
      vertex 0.000000E+000 3.560000E+002 0.000000E+000
    endloop
  endfacet
  facet normal 0.000000E+000 0.000000E+000 -1.000000E+000
    outer loop
      vertex 4.524000E+002 3.400000E+002 0.000000E+000
      vertex 4.584000E+002 3.560000E+002 0.000000E+000
      vertex 4.584000E+002 3.400000E+002 0.000000E+000
    endloop
  endfacet
  facet normal 0.000000E+000 0.000000E+000 -1.000000E+000
    outer loop
      vertex 4.524000E+002 3.500000E+002 0.000000E+000
      vertex 4.584000E+002 3.560000E+002 0.000000E+000
      vertex 4.524000E+002 3.400000E+002 0.000000E+000
    endloop
  endfacet
  facet normal 0.000000E+000 0.000000E+000 -1.000000E+000
    outer loop
      vertex 4.462000E+002 3.500000E+002 0.000000E+000
      vertex 4.584000E+002 3.560000E+002 0.000000E+000
      vertex 4.524000E+002 3.500000E+002 0.000000E+000
    endloop
  endfacet
  facet normal 0.000000E+000 0.000000E+000 -1.000000E+000
    outer loop
      vertex 4.402000E+002 3.400000E+002 0.000000E+000
      vertex 4.462000E+002 3.500000E+002 0.000000E+000
      vertex 4.462000E+002 3.400000E+002 0.000000E+000
    endloop
  endfacet
  facet normal 0.000000E+000 0.000000E+000 -1.000000E+000
    outer loop
      vertex 4.402000E+002 3.500000E+002 0.000000E+000
      vertex 4.462000E+002 3.500000E+002 0.000000E+000
      vertex 4.402000E+002 3.400000E+002 0.000000E+000
    endloop
  endfacet
  facet normal 0.000000E+000 0.000000E+000 -1.000000E+000
    outer loop
      vertex 4.402000E+002 3.500000E+002 0.000000E+000
      vertex 4.584000E+002 3.560000E+002 0.000000E+000
      vertex 4.462000E+002 3.500000E+002 0.000000E+000
    endloop
  endfacet
  facet normal 0.000000E+000 0.000000E+000 -1.000000E+000
    outer loop
      vertex 3.122000E+002 3.500000E+002 0.000000E+000
      vertex 4.584000E+002 3.560000E+002 0.000000E+000
      vertex 4.402000E+002 3.500000E+002 0.000000E+000
    endloop
  endfacet
  facet normal 0.000000E+000 0.000000E+000 -1.000000E+000
    outer loop
      vertex 3.122000E+002 3.500000E+002 0.000000E+000
      vertex 1.220000E+001 3.500000E+002 0.000000E+000
      vertex 4.584000E+002 3.560000E+002 0.000000E+000
    endloop
  endfacet
  facet normal 0.000000E+000 0.000000E+000 -1.000000E+000
    outer loop
      vertex 3.122000E+002 3.500000E+002 0.000000E+000
      vertex 1.220000E+001 0.000000E+000 0.000000E+000
      vertex 1.220000E+001 3.500000E+002 0.000000E+000
    endloop
  endfacet
  facet normal 0.000000E+000 0.000000E+000 -1.000000E+000
    outer loop
      vertex 3.122000E+002 3.500000E+002 0.000000E+000
      vertex 3.122000E+002 0.000000E+000 0.000000E+000
      vertex 1.220000E+001 0.000000E+000 0.000000E+000
    endloop
  endfacet
  facet normal 1.000000E+000 -1.136868E-016 6.123032E-017
    outer loop
      vertex 6.000000E+000 3.400000E+002 0.000000E+000
      vertex 6.000000E+000 3.500000E+002 0.000000E+000
      vertex 6.000000E+000 3.500000E+002 6.000000E+000
    endloop
  endfacet
  facet normal 1.000000E+000 -1.136868E-016 6.123032E-017
    outer loop
      vertex 6.000000E+000 3.400000E+002 0.000000E+000
      vertex 6.000000E+000 3.500000E+002 6.000000E+000
      vertex 6.000000E+000 3.400000E+002 6.000000E+000
    endloop
  endfacet
  facet normal 0.000000E+000 -1.000000E+000 6.123032E-017
    outer loop
      vertex 6.000000E+000 3.500000E+002 0.000000E+000
      vertex 1.220000E+001 3.500000E+002 0.000000E+000
      vertex 1.220000E+001 3.500000E+002 6.000000E+000
    endloop
  endfacet
  facet normal 0.000000E+000 -1.000000E+000 6.123032E-017
    outer loop
      vertex 6.000000E+000 3.500000E+002 0.000000E+000
      vertex 1.220000E+001 3.500000E+002 6.000000E+000
      vertex 6.000000E+000 3.500000E+002 6.000000E+000
    endloop
  endfacet
  facet normal -1.000000E+000 2.273737E-016 6.123032E-017
    outer loop
      vertex 1.220000E+001 3.500000E+002 0.000000E+000
      vertex 1.220000E+001 0.000000E+000 0.000000E+000
      vertex 1.220000E+001 0.000000E+000 6.000000E+000
    endloop
  endfacet
  facet normal -1.000000E+000 2.273737E-016 6.123032E-017
    outer loop
      vertex 1.220000E+001 3.500000E+002 0.000000E+000
      vertex 1.220000E+001 0.000000E+000 6.000000E+000
      vertex 1.220000E+001 3.500000E+002 6.000000E+000
    endloop
  endfacet
  facet normal 0.000000E+000 -1.000000E+000 6.123032E-017
    outer loop
      vertex 1.220000E+001 0.000000E+000 0.000000E+000
      vertex 3.122000E+002 0.000000E+000 0.000000E+000
      vertex 3.122000E+002 3.673819E-016 6.000000E+000
    endloop
  endfacet
  facet normal 0.000000E+000 -1.000000E+000 6.123032E-017
    outer loop
      vertex 1.220000E+001 0.000000E+000 0.000000E+000
      vertex 3.122000E+002 3.673819E-016 6.000000E+000
      vertex 1.220000E+001 3.673819E-016 6.000000E+000
    endloop
  endfacet
  facet normal 1.000000E+000 -6.123032E-017 6.123032E-017
    outer loop
      vertex 3.122000E+002 0.000000E+000 0.000000E+000
      vertex 3.122000E+002 3.500000E+002 0.000000E+000
      vertex 3.122000E+002 3.500000E+002 6.000000E+000
    endloop
  endfacet
  facet normal 1.000000E+000 -6.123032E-017 6.123032E-017
    outer loop
      vertex 3.122000E+002 0.000000E+000 0.000000E+000
      vertex 3.122000E+002 3.500000E+002 6.000000E+000
      vertex 3.122000E+002 2.249491E-032 6.000000E+000
    endloop
  endfacet
  facet normal 0.000000E+000 -1.000000E+000 6.123032E-017
    outer loop
      vertex 3.122000E+002 3.500000E+002 0.000000E+000
      vertex 4.402000E+002 3.500000E+002 0.000000E+000
      vertex 4.402000E+002 3.500000E+002 6.000000E+000
    endloop
  endfacet
  facet normal 0.000000E+000 -1.000000E+000 6.123032E-017
    outer loop
      vertex 3.122000E+002 3.500000E+002 0.000000E+000
      vertex 4.402000E+002 3.500000E+002 6.000000E+000
      vertex 3.122000E+002 3.500000E+002 6.000000E+000
    endloop
  endfacet
  facet normal -1.000000E+000 2.273737E-016 6.123032E-017
    outer loop
      vertex 4.402000E+002 3.500000E+002 0.000000E+000
      vertex 4.402000E+002 3.400000E+002 0.000000E+000
      vertex 4.402000E+002 3.400000E+002 6.000000E+000
    endloop
  endfacet
  facet normal -1.000000E+000 2.273737E-016 6.123032E-017
    outer loop
      vertex 4.402000E+002 3.500000E+002 0.000000E+000
      vertex 4.402000E+002 3.400000E+002 6.000000E+000
      vertex 4.402000E+002 3.500000E+002 6.000000E+000
    endloop
  endfacet
  facet normal 0.000000E+000 -1.000000E+000 6.123032E-017
    outer loop
      vertex 4.402000E+002 3.400000E+002 0.000000E+000
      vertex 4.462000E+002 3.400000E+002 0.000000E+000
      vertex 4.462000E+002 3.400000E+002 6.000000E+000
    endloop
  endfacet
  facet normal 0.000000E+000 -1.000000E+000 6.123032E-017
    outer loop
      vertex 4.402000E+002 3.400000E+002 0.000000E+000
      vertex 4.462000E+002 3.400000E+002 6.000000E+000
      vertex 4.402000E+002 3.400000E+002 6.000000E+000
    endloop
  endfacet
  facet normal 1.000000E+000 -1.136868E-016 6.123032E-017
    outer loop
      vertex 4.462000E+002 3.400000E+002 0.000000E+000
      vertex 4.462000E+002 3.500000E+002 0.000000E+000
      vertex 4.462000E+002 3.500000E+002 6.000000E+000
    endloop
  endfacet
  facet normal 1.000000E+000 -1.136868E-016 6.123032E-017
    outer loop
      vertex 4.462000E+002 3.400000E+002 0.000000E+000
      vertex 4.462000E+002 3.500000E+002 6.000000E+000
      vertex 4.462000E+002 3.400000E+002 6.000000E+000
    endloop
  endfacet
  facet normal 0.000000E+000 -1.000000E+000 6.123032E-017
    outer loop
      vertex 4.462000E+002 3.500000E+002 0.000000E+000
      vertex 4.524000E+002 3.500000E+002 0.000000E+000
      vertex 4.524000E+002 3.500000E+002 6.000000E+000
    endloop
  endfacet
  facet normal 0.000000E+000 -1.000000E+000 6.123032E-017
    outer loop
      vertex 4.462000E+002 3.500000E+002 0.000000E+000
      vertex 4.524000E+002 3.500000E+002 6.000000E+000
      vertex 4.462000E+002 3.500000E+002 6.000000E+000
    endloop
  endfacet
  facet normal -1.000000E+000 2.273737E-016 6.123032E-017
    outer loop
      vertex 4.524000E+002 3.500000E+002 0.000000E+000
      vertex 4.524000E+002 3.400000E+002 0.000000E+000
      vertex 4.524000E+002 3.400000E+002 6.000000E+000
    endloop
  endfacet
  facet normal -1.000000E+000 2.273737E-016 6.123032E-017
    outer loop
      vertex 4.524000E+002 3.500000E+002 0.000000E+000
      vertex 4.524000E+002 3.400000E+002 6.000000E+000
      vertex 4.524000E+002 3.500000E+002 6.000000E+000
    endloop
  endfacet
  facet normal 0.000000E+000 -1.000000E+000 6.123032E-017
    outer loop
      vertex 4.524000E+002 3.400000E+002 0.000000E+000
      vertex 4.584000E+002 3.400000E+002 0.000000E+000
      vertex 4.584000E+002 3.400000E+002 6.000000E+000
    endloop
  endfacet
  facet normal 0.000000E+000 -1.000000E+000 6.123032E-017
    outer loop
      vertex 4.524000E+002 3.400000E+002 0.000000E+000
      vertex 4.584000E+002 3.400000E+002 6.000000E+000
      vertex 4.524000E+002 3.400000E+002 6.000000E+000
    endloop
  endfacet
  facet normal 1.000000E+000 -1.136868E-016 6.123032E-017
    outer loop
      vertex 4.584000E+002 3.400000E+002 0.000000E+000
      vertex 4.584000E+002 3.560000E+002 0.000000E+000
      vertex 4.584000E+002 3.560000E+002 6.000000E+000
    endloop
  endfacet
  facet normal 1.000000E+000 -1.136868E-016 6.123032E-017
    outer loop
      vertex 4.584000E+002 3.400000E+002 0.000000E+000
      vertex 4.584000E+002 3.560000E+002 6.000000E+000
      vertex 4.584000E+002 3.400000E+002 6.000000E+000
    endloop
  endfacet
  facet normal 1.136868E-016 1.000000E+000 6.123032E-017
    outer loop
      vertex 4.584000E+002 3.560000E+002 0.000000E+000
      vertex 0.000000E+000 3.560000E+002 0.000000E+000
      vertex 0.000000E+000 3.560000E+002 6.000000E+000
    endloop
  endfacet
  facet normal 1.136868E-016 1.000000E+000 6.123032E-017
    outer loop
      vertex 4.584000E+002 3.560000E+002 0.000000E+000
      vertex 0.000000E+000 3.560000E+002 6.000000E+000
      vertex 4.584000E+002 3.560000E+002 6.000000E+000
    endloop
  endfacet
  facet normal -1.000000E+000 2.273737E-016 6.123032E-017
    outer loop
      vertex 0.000000E+000 3.560000E+002 0.000000E+000
      vertex -2.939055E-015 3.400000E+002 0.000000E+000
      vertex -2.571673E-015 3.400000E+002 6.000000E+000
    endloop
  endfacet
  facet normal -1.000000E+000 2.273737E-016 6.123032E-017
    outer loop
      vertex 0.000000E+000 3.560000E+002 0.000000E+000
      vertex -2.571673E-015 3.400000E+002 6.000000E+000
      vertex 3.673819E-016 3.560000E+002 6.000000E+000
    endloop
  endfacet
  facet normal 0.000000E+000 -1.000000E+000 6.123032E-017
    outer loop
      vertex 0.000000E+000 3.400000E+002 0.000000E+000
      vertex 6.000000E+000 3.400000E+002 0.000000E+000
      vertex 6.000000E+000 3.400000E+002 6.000000E+000
    endloop
  endfacet
  facet normal 0.000000E+000 -1.000000E+000 6.123032E-017
    outer loop
      vertex 0.000000E+000 3.400000E+002 0.000000E+000
      vertex 6.000000E+000 3.400000E+002 6.000000E+000
      vertex 0.000000E+000 3.400000E+002 6.000000E+000
    endloop
  endfacet
endsolid eMachineShop01
