solid eMachineShop01
  facet normal 0.000000E+000 0.000000E+000 1.000000E+000
    outer loop
      vertex 0.000000E+000 0.000000E+000 6.000000E+000
      vertex 4.900000E+002 0.000000E+000 6.000000E+000
      vertex 4.900000E+002 1.800000E+002 6.000000E+000
    endloop
  endfacet
  facet normal 0.000000E+000 0.000000E+000 1.000000E+000
    outer loop
      vertex 0.000000E+000 0.000000E+000 6.000000E+000
      vertex 4.900000E+002 1.800000E+002 6.000000E+000
      vertex 0.000000E+000 1.800000E+002 6.000000E+000
    endloop
  endfacet
  facet normal 0.000000E+000 0.000000E+000 -1.000000E+000
    outer loop
      vertex 0.000000E+000 0.000000E+000 0.000000E+000
      vertex 4.900000E+002 1.800000E+002 0.000000E+000
      vertex 4.900000E+002 0.000000E+000 0.000000E+000
    endloop
  endfacet
  facet normal 0.000000E+000 0.000000E+000 -1.000000E+000
    outer loop
      vertex 0.000000E+000 0.000000E+000 0.000000E+000
      vertex 0.000000E+000 1.800000E+002 0.000000E+000
      vertex 4.900000E+002 1.800000E+002 0.000000E+000
    endloop
  endfacet
  facet normal 0.000000E+000 -1.000000E+000 6.123032E-017
    outer loop
      vertex 0.000000E+000 0.000000E+000 0.000000E+000
      vertex 4.900000E+002 0.000000E+000 0.000000E+000
      vertex 4.900000E+002 3.673819E-016 6.000000E+000
    endloop
  endfacet
  facet normal 0.000000E+000 -1.000000E+000 6.123032E-017
    outer loop
      vertex 0.000000E+000 0.000000E+000 0.000000E+000
      vertex 4.900000E+002 3.673819E-016 6.000000E+000
      vertex 0.000000E+000 3.673819E-016 6.000000E+000
    endloop
  endfacet
  facet normal 1.000000E+000 -6.123032E-017 6.123032E-017
    outer loop
      vertex 4.900000E+002 0.000000E+000 0.000000E+000
      vertex 4.900000E+002 1.800000E+002 0.000000E+000
      vertex 4.900000E+002 1.800000E+002 6.000000E+000
    endloop
  endfacet
  facet normal 1.000000E+000 -6.123032E-017 6.123032E-017
    outer loop
      vertex 4.900000E+002 0.000000E+000 0.000000E+000
      vertex 4.900000E+002 1.800000E+002 6.000000E+000
      vertex 4.900000E+002 2.249491E-032 6.000000E+000
    endloop
  endfacet
  facet normal 1.136868E-016 1.000000E+000 6.123032E-017
    outer loop
      vertex 4.900000E+002 1.800000E+002 0.000000E+000
      vertex 0.000000E+000 1.800000E+002 0.000000E+000
      vertex 0.000000E+000 1.800000E+002 6.000000E+000
    endloop
  endfacet
  facet normal 1.136868E-016 1.000000E+000 6.123032E-017
    outer loop
      vertex 4.900000E+002 1.800000E+002 0.000000E+000
      vertex 0.000000E+000 1.800000E+002 6.000000E+000
      vertex 4.900000E+002 1.800000E+002 6.000000E+000
    endloop
  endfacet
  facet normal -1.000000E+000 1.705303E-016 6.123032E-017
    outer loop
      vertex 0.000000E+000 1.800000E+002 0.000000E+000
      vertex -3.306437E-014 0.000000E+000 0.000000E+000
      vertex -3.269699E-014 0.000000E+000 6.000000E+000
    endloop
  endfacet
  facet normal -1.000000E+000 1.705303E-016 6.123032E-017
    outer loop
      vertex 0.000000E+000 1.800000E+002 0.000000E+000
      vertex -3.269699E-014 0.000000E+000 6.000000E+000
      vertex 3.673819E-016 1.800000E+002 6.000000E+000
    endloop
  endfacet
endsolid eMachineShop01
